<mxfile host="app.diagrams.net" modified="2023-06-26T02:55:20.624Z" agent="Mozilla/5.0 (Windows NT 10.0; Win64; x64) AppleWebKit/537.36 (KHTML, like Gecko) Chrome/114.0.0.0 Safari/537.36" etag="9rdRaPy8yHcB9bdyqI77" version="21.5.0" type="device">
  <diagram id="C5RBs43oDa-KdzZeNtuy" name="Page-1">
    <mxGraphModel dx="2227" dy="900" grid="1" gridSize="10" guides="1" tooltips="1" connect="1" arrows="1" fold="1" page="1" pageScale="1" pageWidth="827" pageHeight="1169" math="0" shadow="0">
      <root>
        <mxCell id="WIyWlLk6GJQsqaUBKTNV-0" />
        <mxCell id="WIyWlLk6GJQsqaUBKTNV-1" parent="WIyWlLk6GJQsqaUBKTNV-0" />
        <mxCell id="B9bkMVFS8lbxB0pxSiQX-164" style="edgeStyle=orthogonalEdgeStyle;rounded=0;orthogonalLoop=1;jettySize=auto;html=1;entryX=0.473;entryY=1.124;entryDx=0;entryDy=0;startArrow=none;startFill=0;endArrow=ERzeroToOne;endFill=0;entryPerimeter=0;" parent="WIyWlLk6GJQsqaUBKTNV-1" source="B9bkMVFS8lbxB0pxSiQX-1" target="B9bkMVFS8lbxB0pxSiQX-83" edge="1">
          <mxGeometry relative="1" as="geometry">
            <mxPoint x="195" y="220" as="targetPoint" />
            <Array as="points">
              <mxPoint x="-357" y="660" />
            </Array>
          </mxGeometry>
        </mxCell>
        <mxCell id="B9bkMVFS8lbxB0pxSiQX-1" value="lixo" style="shape=table;startSize=30;container=1;collapsible=1;childLayout=tableLayout;fixedRows=1;rowLines=0;fontStyle=1;align=center;resizeLast=1;html=1;swimlaneLine=1;strokeColor=default;fillColor=default;" parent="WIyWlLk6GJQsqaUBKTNV-1" vertex="1">
          <mxGeometry x="-40" y="610" width="260" height="152" as="geometry">
            <mxRectangle x="-200" y="10" width="70" height="30" as="alternateBounds" />
          </mxGeometry>
        </mxCell>
        <mxCell id="B9bkMVFS8lbxB0pxSiQX-2" value="" style="shape=tableRow;horizontal=0;startSize=0;swimlaneHead=0;swimlaneBody=0;fillColor=none;collapsible=0;dropTarget=0;points=[[0,0.5],[1,0.5]];portConstraint=eastwest;top=0;left=0;right=0;bottom=1;" parent="B9bkMVFS8lbxB0pxSiQX-1" vertex="1">
          <mxGeometry y="30" width="260" height="20" as="geometry" />
        </mxCell>
        <mxCell id="B9bkMVFS8lbxB0pxSiQX-3" value="PK - SERIAL - INT" style="shape=partialRectangle;connectable=0;fillColor=none;top=0;left=0;bottom=0;right=0;fontStyle=1;overflow=hidden;whiteSpace=wrap;html=1;" parent="B9bkMVFS8lbxB0pxSiQX-2" vertex="1">
          <mxGeometry width="119.99999999999994" height="20" as="geometry">
            <mxRectangle width="119.99999999999994" height="20" as="alternateBounds" />
          </mxGeometry>
        </mxCell>
        <mxCell id="B9bkMVFS8lbxB0pxSiQX-4" value="id_carga" style="shape=partialRectangle;connectable=0;fillColor=none;top=0;left=0;bottom=0;right=0;align=left;spacingLeft=6;fontStyle=5;overflow=hidden;whiteSpace=wrap;html=1;" parent="B9bkMVFS8lbxB0pxSiQX-2" vertex="1">
          <mxGeometry x="119.99999999999994" width="140.00000000000006" height="20" as="geometry">
            <mxRectangle width="140.00000000000006" height="20" as="alternateBounds" />
          </mxGeometry>
        </mxCell>
        <mxCell id="B9bkMVFS8lbxB0pxSiQX-28" value="" style="shape=tableRow;horizontal=0;startSize=0;swimlaneHead=0;swimlaneBody=0;fillColor=none;collapsible=0;dropTarget=0;points=[[0,0.5],[1,0.5]];portConstraint=eastwest;top=0;left=0;right=0;bottom=1;" parent="B9bkMVFS8lbxB0pxSiQX-1" vertex="1">
          <mxGeometry y="50" width="260" height="34" as="geometry" />
        </mxCell>
        <mxCell id="B9bkMVFS8lbxB0pxSiQX-29" value="VARCHAR(20)" style="shape=partialRectangle;connectable=0;fillColor=none;top=0;left=0;bottom=0;right=0;fontStyle=1;overflow=hidden;whiteSpace=wrap;html=1;" parent="B9bkMVFS8lbxB0pxSiQX-28" vertex="1">
          <mxGeometry width="119.99999999999994" height="34" as="geometry">
            <mxRectangle width="119.99999999999994" height="34" as="alternateBounds" />
          </mxGeometry>
        </mxCell>
        <mxCell id="B9bkMVFS8lbxB0pxSiQX-30" value="classificacao" style="shape=partialRectangle;connectable=0;fillColor=none;top=0;left=0;bottom=0;right=0;align=left;spacingLeft=6;fontStyle=0;overflow=hidden;whiteSpace=wrap;html=1;" parent="B9bkMVFS8lbxB0pxSiQX-28" vertex="1">
          <mxGeometry x="119.99999999999994" width="140.00000000000006" height="34" as="geometry">
            <mxRectangle width="140.00000000000006" height="34" as="alternateBounds" />
          </mxGeometry>
        </mxCell>
        <mxCell id="B9bkMVFS8lbxB0pxSiQX-34" value="" style="shape=tableRow;horizontal=0;startSize=0;swimlaneHead=0;swimlaneBody=0;fillColor=none;collapsible=0;dropTarget=0;points=[[0,0.5],[1,0.5]];portConstraint=eastwest;top=0;left=0;right=0;bottom=1;" parent="B9bkMVFS8lbxB0pxSiQX-1" vertex="1">
          <mxGeometry y="84" width="260" height="34" as="geometry" />
        </mxCell>
        <mxCell id="B9bkMVFS8lbxB0pxSiQX-35" value="FK - INT" style="shape=partialRectangle;connectable=0;fillColor=none;top=0;left=0;bottom=0;right=0;fontStyle=1;overflow=hidden;whiteSpace=wrap;html=1;" parent="B9bkMVFS8lbxB0pxSiQX-34" vertex="1">
          <mxGeometry width="119.99999999999994" height="34" as="geometry">
            <mxRectangle width="119.99999999999994" height="34" as="alternateBounds" />
          </mxGeometry>
        </mxCell>
        <mxCell id="B9bkMVFS8lbxB0pxSiQX-36" value="&lt;span&gt;&lt;span&gt;id_ponto&lt;/span&gt;&lt;/span&gt;" style="shape=partialRectangle;connectable=0;fillColor=none;top=0;left=0;bottom=0;right=0;align=left;spacingLeft=6;fontStyle=1;overflow=hidden;whiteSpace=wrap;html=1;" parent="B9bkMVFS8lbxB0pxSiQX-34" vertex="1">
          <mxGeometry x="119.99999999999994" width="140.00000000000006" height="34" as="geometry">
            <mxRectangle width="140.00000000000006" height="34" as="alternateBounds" />
          </mxGeometry>
        </mxCell>
        <mxCell id="NleWMUWUHoIItOQJwJyF-0" value="" style="shape=tableRow;horizontal=0;startSize=0;swimlaneHead=0;swimlaneBody=0;fillColor=none;collapsible=0;dropTarget=0;points=[[0,0.5],[1,0.5]];portConstraint=eastwest;top=0;left=0;right=0;bottom=1;" parent="B9bkMVFS8lbxB0pxSiQX-1" vertex="1">
          <mxGeometry y="118" width="260" height="34" as="geometry" />
        </mxCell>
        <mxCell id="NleWMUWUHoIItOQJwJyF-1" value="FK - INT" style="shape=partialRectangle;connectable=0;fillColor=none;top=0;left=0;bottom=0;right=0;fontStyle=1;overflow=hidden;whiteSpace=wrap;html=1;" parent="NleWMUWUHoIItOQJwJyF-0" vertex="1">
          <mxGeometry width="119.99999999999994" height="34" as="geometry">
            <mxRectangle width="119.99999999999994" height="34" as="alternateBounds" />
          </mxGeometry>
        </mxCell>
        <mxCell id="NleWMUWUHoIItOQJwJyF-2" value="&lt;span&gt;&lt;span&gt;id_caminhao&lt;/span&gt;&lt;/span&gt;" style="shape=partialRectangle;connectable=0;fillColor=none;top=0;left=0;bottom=0;right=0;align=left;spacingLeft=6;fontStyle=1;overflow=hidden;whiteSpace=wrap;html=1;" parent="NleWMUWUHoIItOQJwJyF-0" vertex="1">
          <mxGeometry x="119.99999999999994" width="140.00000000000006" height="34" as="geometry">
            <mxRectangle width="140.00000000000006" height="34" as="alternateBounds" />
          </mxGeometry>
        </mxCell>
        <mxCell id="B9bkMVFS8lbxB0pxSiQX-37" value="usuario" style="shape=table;startSize=30;container=1;collapsible=1;childLayout=tableLayout;fixedRows=1;rowLines=0;fontStyle=1;align=center;resizeLast=1;html=1;" parent="WIyWlLk6GJQsqaUBKTNV-1" vertex="1">
          <mxGeometry x="-110" y="120" width="380" height="150" as="geometry">
            <mxRectangle x="70" y="40" width="70" height="30" as="alternateBounds" />
          </mxGeometry>
        </mxCell>
        <mxCell id="B9bkMVFS8lbxB0pxSiQX-38" value="" style="shape=tableRow;horizontal=0;startSize=0;swimlaneHead=0;swimlaneBody=0;fillColor=none;collapsible=0;dropTarget=0;points=[[0,0.5],[1,0.5]];portConstraint=eastwest;top=0;left=0;right=0;bottom=1;" parent="B9bkMVFS8lbxB0pxSiQX-37" vertex="1">
          <mxGeometry y="30" width="380" height="30" as="geometry" />
        </mxCell>
        <mxCell id="B9bkMVFS8lbxB0pxSiQX-39" value="PK - SERIAL - INT" style="shape=partialRectangle;connectable=0;fillColor=none;top=0;left=0;bottom=0;right=0;fontStyle=1;overflow=hidden;whiteSpace=wrap;html=1;" parent="B9bkMVFS8lbxB0pxSiQX-38" vertex="1">
          <mxGeometry width="240" height="30" as="geometry">
            <mxRectangle width="240" height="30" as="alternateBounds" />
          </mxGeometry>
        </mxCell>
        <mxCell id="B9bkMVFS8lbxB0pxSiQX-40" value="id_usuario" style="shape=partialRectangle;connectable=0;fillColor=none;top=0;left=0;bottom=0;right=0;align=left;spacingLeft=6;fontStyle=5;overflow=hidden;whiteSpace=wrap;html=1;" parent="B9bkMVFS8lbxB0pxSiQX-38" vertex="1">
          <mxGeometry x="240" width="140" height="30" as="geometry">
            <mxRectangle width="140" height="30" as="alternateBounds" />
          </mxGeometry>
        </mxCell>
        <mxCell id="B9bkMVFS8lbxB0pxSiQX-51" value="" style="shape=tableRow;horizontal=0;startSize=0;swimlaneHead=0;swimlaneBody=0;fillColor=none;collapsible=0;dropTarget=0;points=[[0,0.5],[1,0.5]];portConstraint=eastwest;top=0;left=0;right=0;bottom=1;" parent="B9bkMVFS8lbxB0pxSiQX-37" vertex="1">
          <mxGeometry y="60" width="380" height="30" as="geometry" />
        </mxCell>
        <mxCell id="B9bkMVFS8lbxB0pxSiQX-52" value="VARCHAR(70) - UNIQUE - NOT NULL" style="shape=partialRectangle;connectable=0;fillColor=none;top=0;left=0;bottom=0;right=0;fontStyle=1;overflow=hidden;whiteSpace=wrap;html=1;" parent="B9bkMVFS8lbxB0pxSiQX-51" vertex="1">
          <mxGeometry width="240" height="30" as="geometry">
            <mxRectangle width="240" height="30" as="alternateBounds" />
          </mxGeometry>
        </mxCell>
        <mxCell id="B9bkMVFS8lbxB0pxSiQX-53" value="&lt;span style=&quot;font-weight: normal;&quot;&gt;nome&lt;/span&gt;" style="shape=partialRectangle;connectable=0;fillColor=none;top=0;left=0;bottom=0;right=0;align=left;spacingLeft=6;fontStyle=1;overflow=hidden;whiteSpace=wrap;html=1;" parent="B9bkMVFS8lbxB0pxSiQX-51" vertex="1">
          <mxGeometry x="240" width="140" height="30" as="geometry">
            <mxRectangle width="140" height="30" as="alternateBounds" />
          </mxGeometry>
        </mxCell>
        <mxCell id="B9bkMVFS8lbxB0pxSiQX-57" value="" style="shape=tableRow;horizontal=0;startSize=0;swimlaneHead=0;swimlaneBody=0;fillColor=none;collapsible=0;dropTarget=0;points=[[0,0.5],[1,0.5]];portConstraint=eastwest;top=0;left=0;right=0;bottom=1;" parent="B9bkMVFS8lbxB0pxSiQX-37" vertex="1">
          <mxGeometry y="90" width="380" height="30" as="geometry" />
        </mxCell>
        <mxCell id="B9bkMVFS8lbxB0pxSiQX-58" value="VARCHAR(6) - UNIQUE - NOT NULL" style="shape=partialRectangle;connectable=0;fillColor=none;top=0;left=0;bottom=0;right=0;fontStyle=1;overflow=hidden;whiteSpace=wrap;html=1;" parent="B9bkMVFS8lbxB0pxSiQX-57" vertex="1">
          <mxGeometry width="240" height="30" as="geometry">
            <mxRectangle width="240" height="30" as="alternateBounds" />
          </mxGeometry>
        </mxCell>
        <mxCell id="B9bkMVFS8lbxB0pxSiQX-59" value="&lt;span style=&quot;font-weight: normal;&quot;&gt;senha&lt;/span&gt;" style="shape=partialRectangle;connectable=0;fillColor=none;top=0;left=0;bottom=0;right=0;align=left;spacingLeft=6;fontStyle=1;overflow=hidden;whiteSpace=wrap;html=1;" parent="B9bkMVFS8lbxB0pxSiQX-57" vertex="1">
          <mxGeometry x="240" width="140" height="30" as="geometry">
            <mxRectangle width="140" height="30" as="alternateBounds" />
          </mxGeometry>
        </mxCell>
        <mxCell id="B9bkMVFS8lbxB0pxSiQX-60" value="" style="shape=tableRow;horizontal=0;startSize=0;swimlaneHead=0;swimlaneBody=0;fillColor=none;collapsible=0;dropTarget=0;points=[[0,0.5],[1,0.5]];portConstraint=eastwest;top=0;left=0;right=0;bottom=1;" parent="B9bkMVFS8lbxB0pxSiQX-37" vertex="1">
          <mxGeometry y="120" width="380" height="30" as="geometry" />
        </mxCell>
        <mxCell id="B9bkMVFS8lbxB0pxSiQX-61" value="VARCHAR(70) - UNIQUE - NOT NULL" style="shape=partialRectangle;connectable=0;fillColor=none;top=0;left=0;bottom=0;right=0;fontStyle=1;overflow=hidden;whiteSpace=wrap;html=1;" parent="B9bkMVFS8lbxB0pxSiQX-60" vertex="1">
          <mxGeometry width="240" height="30" as="geometry">
            <mxRectangle width="240" height="30" as="alternateBounds" />
          </mxGeometry>
        </mxCell>
        <mxCell id="B9bkMVFS8lbxB0pxSiQX-62" value="&lt;span style=&quot;font-weight: normal;&quot;&gt;email&lt;/span&gt;" style="shape=partialRectangle;connectable=0;fillColor=none;top=0;left=0;bottom=0;right=0;align=left;spacingLeft=6;fontStyle=1;overflow=hidden;whiteSpace=wrap;html=1;" parent="B9bkMVFS8lbxB0pxSiQX-60" vertex="1">
          <mxGeometry x="240" width="140" height="30" as="geometry">
            <mxRectangle width="140" height="30" as="alternateBounds" />
          </mxGeometry>
        </mxCell>
        <mxCell id="B9bkMVFS8lbxB0pxSiQX-166" style="edgeStyle=orthogonalEdgeStyle;rounded=0;orthogonalLoop=1;jettySize=auto;html=1;endArrow=ERoneToMany;endFill=0;" parent="WIyWlLk6GJQsqaUBKTNV-1" source="B9bkMVFS8lbxB0pxSiQX-63" target="B9bkMVFS8lbxB0pxSiQX-112" edge="1">
          <mxGeometry relative="1" as="geometry" />
        </mxCell>
        <mxCell id="B9bkMVFS8lbxB0pxSiQX-63" value="ponto_de_coleta" style="shape=table;startSize=30;container=1;collapsible=1;childLayout=tableLayout;fixedRows=1;rowLines=0;fontStyle=1;align=center;resizeLast=1;html=1;" parent="WIyWlLk6GJQsqaUBKTNV-1" vertex="1">
          <mxGeometry x="-480" y="315" width="260" height="150" as="geometry">
            <mxRectangle x="-235" y="280" width="140" height="30" as="alternateBounds" />
          </mxGeometry>
        </mxCell>
        <mxCell id="B9bkMVFS8lbxB0pxSiQX-64" value="" style="shape=tableRow;horizontal=0;startSize=0;swimlaneHead=0;swimlaneBody=0;fillColor=none;collapsible=0;dropTarget=0;points=[[0,0.5],[1,0.5]];portConstraint=eastwest;top=0;left=0;right=0;bottom=1;" parent="B9bkMVFS8lbxB0pxSiQX-63" vertex="1">
          <mxGeometry y="30" width="260" height="30" as="geometry" />
        </mxCell>
        <mxCell id="B9bkMVFS8lbxB0pxSiQX-65" value="PK - SERIAL - INT" style="shape=partialRectangle;connectable=0;fillColor=none;top=0;left=0;bottom=0;right=0;fontStyle=1;overflow=hidden;whiteSpace=wrap;html=1;" parent="B9bkMVFS8lbxB0pxSiQX-64" vertex="1">
          <mxGeometry width="120" height="30" as="geometry">
            <mxRectangle width="120" height="30" as="alternateBounds" />
          </mxGeometry>
        </mxCell>
        <mxCell id="B9bkMVFS8lbxB0pxSiQX-66" value="id_ponto" style="shape=partialRectangle;connectable=0;fillColor=none;top=0;left=0;bottom=0;right=0;align=left;spacingLeft=6;fontStyle=5;overflow=hidden;whiteSpace=wrap;html=1;" parent="B9bkMVFS8lbxB0pxSiQX-64" vertex="1">
          <mxGeometry x="120" width="140" height="30" as="geometry">
            <mxRectangle width="140" height="30" as="alternateBounds" />
          </mxGeometry>
        </mxCell>
        <mxCell id="B9bkMVFS8lbxB0pxSiQX-77" value="" style="shape=tableRow;horizontal=0;startSize=0;swimlaneHead=0;swimlaneBody=0;fillColor=none;collapsible=0;dropTarget=0;points=[[0,0.5],[1,0.5]];portConstraint=eastwest;top=0;left=0;right=0;bottom=1;" parent="B9bkMVFS8lbxB0pxSiQX-63" vertex="1">
          <mxGeometry y="60" width="260" height="30" as="geometry" />
        </mxCell>
        <mxCell id="B9bkMVFS8lbxB0pxSiQX-78" value="VARCHAR(50)" style="shape=partialRectangle;connectable=0;fillColor=none;top=0;left=0;bottom=0;right=0;fontStyle=1;overflow=hidden;whiteSpace=wrap;html=1;" parent="B9bkMVFS8lbxB0pxSiQX-77" vertex="1">
          <mxGeometry width="120" height="30" as="geometry">
            <mxRectangle width="120" height="30" as="alternateBounds" />
          </mxGeometry>
        </mxCell>
        <mxCell id="B9bkMVFS8lbxB0pxSiQX-79" value="bairro" style="shape=partialRectangle;connectable=0;fillColor=none;top=0;left=0;bottom=0;right=0;align=left;spacingLeft=6;fontStyle=0;overflow=hidden;whiteSpace=wrap;html=1;" parent="B9bkMVFS8lbxB0pxSiQX-77" vertex="1">
          <mxGeometry x="120" width="140" height="30" as="geometry">
            <mxRectangle width="140" height="30" as="alternateBounds" />
          </mxGeometry>
        </mxCell>
        <mxCell id="B9bkMVFS8lbxB0pxSiQX-80" value="" style="shape=tableRow;horizontal=0;startSize=0;swimlaneHead=0;swimlaneBody=0;fillColor=none;collapsible=0;dropTarget=0;points=[[0,0.5],[1,0.5]];portConstraint=eastwest;top=0;left=0;right=0;bottom=1;" parent="B9bkMVFS8lbxB0pxSiQX-63" vertex="1">
          <mxGeometry y="90" width="260" height="30" as="geometry" />
        </mxCell>
        <mxCell id="B9bkMVFS8lbxB0pxSiQX-81" value="VARCHAR(50)" style="shape=partialRectangle;connectable=0;fillColor=none;top=0;left=0;bottom=0;right=0;fontStyle=1;overflow=hidden;whiteSpace=wrap;html=1;" parent="B9bkMVFS8lbxB0pxSiQX-80" vertex="1">
          <mxGeometry width="120" height="30" as="geometry">
            <mxRectangle width="120" height="30" as="alternateBounds" />
          </mxGeometry>
        </mxCell>
        <mxCell id="B9bkMVFS8lbxB0pxSiQX-82" value="rua" style="shape=partialRectangle;connectable=0;fillColor=none;top=0;left=0;bottom=0;right=0;align=left;spacingLeft=6;fontStyle=0;overflow=hidden;whiteSpace=wrap;html=1;" parent="B9bkMVFS8lbxB0pxSiQX-80" vertex="1">
          <mxGeometry x="120" width="140" height="30" as="geometry">
            <mxRectangle width="140" height="30" as="alternateBounds" />
          </mxGeometry>
        </mxCell>
        <mxCell id="B9bkMVFS8lbxB0pxSiQX-83" value="" style="shape=tableRow;horizontal=0;startSize=0;swimlaneHead=0;swimlaneBody=0;fillColor=none;collapsible=0;dropTarget=0;points=[[0,0.5],[1,0.5]];portConstraint=eastwest;top=0;left=0;right=0;bottom=1;" parent="B9bkMVFS8lbxB0pxSiQX-63" vertex="1">
          <mxGeometry y="120" width="260" height="30" as="geometry" />
        </mxCell>
        <mxCell id="B9bkMVFS8lbxB0pxSiQX-84" value="INT" style="shape=partialRectangle;connectable=0;fillColor=none;top=0;left=0;bottom=0;right=0;fontStyle=1;overflow=hidden;whiteSpace=wrap;html=1;" parent="B9bkMVFS8lbxB0pxSiQX-83" vertex="1">
          <mxGeometry width="120" height="30" as="geometry">
            <mxRectangle width="120" height="30" as="alternateBounds" />
          </mxGeometry>
        </mxCell>
        <mxCell id="B9bkMVFS8lbxB0pxSiQX-85" value="numero" style="shape=partialRectangle;connectable=0;fillColor=none;top=0;left=0;bottom=0;right=0;align=left;spacingLeft=6;fontStyle=0;overflow=hidden;whiteSpace=wrap;html=1;" parent="B9bkMVFS8lbxB0pxSiQX-83" vertex="1">
          <mxGeometry x="120" width="140" height="30" as="geometry">
            <mxRectangle width="140" height="30" as="alternateBounds" />
          </mxGeometry>
        </mxCell>
        <mxCell id="B9bkMVFS8lbxB0pxSiQX-86" value="motorista" style="shape=table;startSize=30;container=1;collapsible=1;childLayout=tableLayout;fixedRows=1;rowLines=0;fontStyle=1;align=center;resizeLast=1;html=1;" parent="WIyWlLk6GJQsqaUBKTNV-1" vertex="1">
          <mxGeometry x="430" y="100" width="260" height="110" as="geometry">
            <mxRectangle x="325" y="10" width="70" height="30" as="alternateBounds" />
          </mxGeometry>
        </mxCell>
        <mxCell id="B9bkMVFS8lbxB0pxSiQX-87" value="" style="shape=tableRow;horizontal=0;startSize=0;swimlaneHead=0;swimlaneBody=0;fillColor=none;collapsible=0;dropTarget=0;points=[[0,0.5],[1,0.5]];portConstraint=eastwest;top=0;left=0;right=0;bottom=1;" parent="B9bkMVFS8lbxB0pxSiQX-86" vertex="1">
          <mxGeometry y="30" width="260" height="20" as="geometry" />
        </mxCell>
        <mxCell id="B9bkMVFS8lbxB0pxSiQX-88" value="PK - SERIAL - INT" style="shape=partialRectangle;connectable=0;fillColor=none;top=0;left=0;bottom=0;right=0;fontStyle=1;overflow=hidden;whiteSpace=wrap;html=1;" parent="B9bkMVFS8lbxB0pxSiQX-87" vertex="1">
          <mxGeometry width="120" height="20" as="geometry">
            <mxRectangle width="120" height="20" as="alternateBounds" />
          </mxGeometry>
        </mxCell>
        <mxCell id="B9bkMVFS8lbxB0pxSiQX-89" value="id_motorista" style="shape=partialRectangle;connectable=0;fillColor=none;top=0;left=0;bottom=0;right=0;align=left;spacingLeft=6;fontStyle=5;overflow=hidden;whiteSpace=wrap;html=1;" parent="B9bkMVFS8lbxB0pxSiQX-87" vertex="1">
          <mxGeometry x="120" width="140" height="20" as="geometry">
            <mxRectangle width="140" height="20" as="alternateBounds" />
          </mxGeometry>
        </mxCell>
        <mxCell id="B9bkMVFS8lbxB0pxSiQX-100" value="" style="shape=tableRow;horizontal=0;startSize=0;swimlaneHead=0;swimlaneBody=0;fillColor=none;collapsible=0;dropTarget=0;points=[[0,0.5],[1,0.5]];portConstraint=eastwest;top=0;left=0;right=0;bottom=1;" parent="B9bkMVFS8lbxB0pxSiQX-86" vertex="1">
          <mxGeometry y="50" width="260" height="20" as="geometry" />
        </mxCell>
        <mxCell id="B9bkMVFS8lbxB0pxSiQX-101" value="VARCHAR(11)" style="shape=partialRectangle;connectable=0;fillColor=none;top=0;left=0;bottom=0;right=0;fontStyle=1;overflow=hidden;whiteSpace=wrap;html=1;" parent="B9bkMVFS8lbxB0pxSiQX-100" vertex="1">
          <mxGeometry width="120" height="20" as="geometry">
            <mxRectangle width="120" height="20" as="alternateBounds" />
          </mxGeometry>
        </mxCell>
        <mxCell id="B9bkMVFS8lbxB0pxSiQX-102" value="&lt;span style=&quot;font-weight: normal;&quot;&gt;cpf&lt;/span&gt;" style="shape=partialRectangle;connectable=0;fillColor=none;top=0;left=0;bottom=0;right=0;align=left;spacingLeft=6;fontStyle=1;overflow=hidden;whiteSpace=wrap;html=1;" parent="B9bkMVFS8lbxB0pxSiQX-100" vertex="1">
          <mxGeometry x="120" width="140" height="20" as="geometry">
            <mxRectangle width="140" height="20" as="alternateBounds" />
          </mxGeometry>
        </mxCell>
        <mxCell id="B9bkMVFS8lbxB0pxSiQX-103" value="" style="shape=tableRow;horizontal=0;startSize=0;swimlaneHead=0;swimlaneBody=0;fillColor=none;collapsible=0;dropTarget=0;points=[[0,0.5],[1,0.5]];portConstraint=eastwest;top=0;left=0;right=0;bottom=1;" parent="B9bkMVFS8lbxB0pxSiQX-86" vertex="1">
          <mxGeometry y="70" width="260" height="20" as="geometry" />
        </mxCell>
        <mxCell id="B9bkMVFS8lbxB0pxSiQX-104" value="VARCHAR(50)" style="shape=partialRectangle;connectable=0;fillColor=none;top=0;left=0;bottom=0;right=0;fontStyle=1;overflow=hidden;whiteSpace=wrap;html=1;" parent="B9bkMVFS8lbxB0pxSiQX-103" vertex="1">
          <mxGeometry width="120" height="20" as="geometry">
            <mxRectangle width="120" height="20" as="alternateBounds" />
          </mxGeometry>
        </mxCell>
        <mxCell id="B9bkMVFS8lbxB0pxSiQX-105" value="&lt;span style=&quot;font-weight: normal;&quot;&gt;nome&lt;/span&gt;" style="shape=partialRectangle;connectable=0;fillColor=none;top=0;left=0;bottom=0;right=0;align=left;spacingLeft=6;fontStyle=1;overflow=hidden;whiteSpace=wrap;html=1;" parent="B9bkMVFS8lbxB0pxSiQX-103" vertex="1">
          <mxGeometry x="120" width="140" height="20" as="geometry">
            <mxRectangle width="140" height="20" as="alternateBounds" />
          </mxGeometry>
        </mxCell>
        <mxCell id="B9bkMVFS8lbxB0pxSiQX-109" value="" style="shape=tableRow;horizontal=0;startSize=0;swimlaneHead=0;swimlaneBody=0;fillColor=none;collapsible=0;dropTarget=0;points=[[0,0.5],[1,0.5]];portConstraint=eastwest;top=0;left=0;right=0;bottom=1;" parent="B9bkMVFS8lbxB0pxSiQX-86" vertex="1">
          <mxGeometry y="90" width="260" height="20" as="geometry" />
        </mxCell>
        <mxCell id="B9bkMVFS8lbxB0pxSiQX-110" value="FK - INT" style="shape=partialRectangle;connectable=0;fillColor=none;top=0;left=0;bottom=0;right=0;fontStyle=1;overflow=hidden;whiteSpace=wrap;html=1;" parent="B9bkMVFS8lbxB0pxSiQX-109" vertex="1">
          <mxGeometry width="120" height="20" as="geometry">
            <mxRectangle width="120" height="20" as="alternateBounds" />
          </mxGeometry>
        </mxCell>
        <mxCell id="B9bkMVFS8lbxB0pxSiQX-111" value="&lt;span style=&quot;&quot;&gt;id_caminhao&lt;/span&gt;" style="shape=partialRectangle;connectable=0;fillColor=none;top=0;left=0;bottom=0;right=0;align=left;spacingLeft=6;fontStyle=1;overflow=hidden;whiteSpace=wrap;html=1;" parent="B9bkMVFS8lbxB0pxSiQX-109" vertex="1">
          <mxGeometry x="120" width="140" height="20" as="geometry">
            <mxRectangle width="140" height="20" as="alternateBounds" />
          </mxGeometry>
        </mxCell>
        <mxCell id="B9bkMVFS8lbxB0pxSiQX-167" style="edgeStyle=orthogonalEdgeStyle;rounded=0;orthogonalLoop=1;jettySize=auto;html=1;entryX=0;entryY=0.5;entryDx=0;entryDy=0;endArrow=ERoneToMany;endFill=0;" parent="WIyWlLk6GJQsqaUBKTNV-1" source="B9bkMVFS8lbxB0pxSiQX-112" target="B9bkMVFS8lbxB0pxSiQX-137" edge="1">
          <mxGeometry relative="1" as="geometry" />
        </mxCell>
        <mxCell id="B9bkMVFS8lbxB0pxSiQX-112" value="rota_de_coleta" style="shape=table;startSize=30;container=1;collapsible=1;childLayout=tableLayout;fixedRows=1;rowLines=0;fontStyle=1;align=center;resizeLast=1;html=1;" parent="WIyWlLk6GJQsqaUBKTNV-1" vertex="1">
          <mxGeometry y="315" width="180" height="150" as="geometry">
            <mxRectangle x="70" y="280" width="130" height="30" as="alternateBounds" />
          </mxGeometry>
        </mxCell>
        <mxCell id="B9bkMVFS8lbxB0pxSiQX-113" value="" style="shape=tableRow;horizontal=0;startSize=0;swimlaneHead=0;swimlaneBody=0;fillColor=none;collapsible=0;dropTarget=0;points=[[0,0.5],[1,0.5]];portConstraint=eastwest;top=0;left=0;right=0;bottom=1;" parent="B9bkMVFS8lbxB0pxSiQX-112" vertex="1">
          <mxGeometry y="30" width="180" height="30" as="geometry" />
        </mxCell>
        <mxCell id="B9bkMVFS8lbxB0pxSiQX-114" value="PK - SERIAL - INT" style="shape=partialRectangle;connectable=0;fillColor=none;top=0;left=0;bottom=0;right=0;fontStyle=1;overflow=hidden;whiteSpace=wrap;html=1;" parent="B9bkMVFS8lbxB0pxSiQX-113" vertex="1">
          <mxGeometry width="120" height="30" as="geometry">
            <mxRectangle width="120" height="30" as="alternateBounds" />
          </mxGeometry>
        </mxCell>
        <mxCell id="B9bkMVFS8lbxB0pxSiQX-115" value="id_rota" style="shape=partialRectangle;connectable=0;fillColor=none;top=0;left=0;bottom=0;right=0;align=left;spacingLeft=6;fontStyle=5;overflow=hidden;whiteSpace=wrap;html=1;" parent="B9bkMVFS8lbxB0pxSiQX-113" vertex="1">
          <mxGeometry x="120" width="60" height="30" as="geometry">
            <mxRectangle width="60" height="30" as="alternateBounds" />
          </mxGeometry>
        </mxCell>
        <mxCell id="B9bkMVFS8lbxB0pxSiQX-125" value="" style="shape=tableRow;horizontal=0;startSize=0;swimlaneHead=0;swimlaneBody=0;fillColor=none;collapsible=0;dropTarget=0;points=[[0,0.5],[1,0.5]];portConstraint=eastwest;top=0;left=0;right=0;bottom=1;" parent="B9bkMVFS8lbxB0pxSiQX-112" vertex="1">
          <mxGeometry y="60" width="180" height="30" as="geometry" />
        </mxCell>
        <mxCell id="B9bkMVFS8lbxB0pxSiQX-126" value="VARCHAR(100)" style="shape=partialRectangle;connectable=0;fillColor=none;top=0;left=0;bottom=0;right=0;fontStyle=1;overflow=hidden;whiteSpace=wrap;html=1;" parent="B9bkMVFS8lbxB0pxSiQX-125" vertex="1">
          <mxGeometry width="120" height="30" as="geometry">
            <mxRectangle width="120" height="30" as="alternateBounds" />
          </mxGeometry>
        </mxCell>
        <mxCell id="B9bkMVFS8lbxB0pxSiQX-127" value="rua" style="shape=partialRectangle;connectable=0;fillColor=none;top=0;left=0;bottom=0;right=0;align=left;spacingLeft=6;fontStyle=0;overflow=hidden;whiteSpace=wrap;html=1;" parent="B9bkMVFS8lbxB0pxSiQX-125" vertex="1">
          <mxGeometry x="120" width="60" height="30" as="geometry">
            <mxRectangle width="60" height="30" as="alternateBounds" />
          </mxGeometry>
        </mxCell>
        <mxCell id="B9bkMVFS8lbxB0pxSiQX-128" value="" style="shape=tableRow;horizontal=0;startSize=0;swimlaneHead=0;swimlaneBody=0;fillColor=none;collapsible=0;dropTarget=0;points=[[0,0.5],[1,0.5]];portConstraint=eastwest;top=0;left=0;right=0;bottom=1;" parent="B9bkMVFS8lbxB0pxSiQX-112" vertex="1">
          <mxGeometry y="90" width="180" height="30" as="geometry" />
        </mxCell>
        <mxCell id="B9bkMVFS8lbxB0pxSiQX-129" value="VARCHAR(100)" style="shape=partialRectangle;connectable=0;fillColor=none;top=0;left=0;bottom=0;right=0;fontStyle=1;overflow=hidden;whiteSpace=wrap;html=1;" parent="B9bkMVFS8lbxB0pxSiQX-128" vertex="1">
          <mxGeometry width="120" height="30" as="geometry">
            <mxRectangle width="120" height="30" as="alternateBounds" />
          </mxGeometry>
        </mxCell>
        <mxCell id="B9bkMVFS8lbxB0pxSiQX-130" value="bairro" style="shape=partialRectangle;connectable=0;fillColor=none;top=0;left=0;bottom=0;right=0;align=left;spacingLeft=6;fontStyle=0;overflow=hidden;whiteSpace=wrap;html=1;" parent="B9bkMVFS8lbxB0pxSiQX-128" vertex="1">
          <mxGeometry x="120" width="60" height="30" as="geometry">
            <mxRectangle width="60" height="30" as="alternateBounds" />
          </mxGeometry>
        </mxCell>
        <mxCell id="B9bkMVFS8lbxB0pxSiQX-131" value="" style="shape=tableRow;horizontal=0;startSize=0;swimlaneHead=0;swimlaneBody=0;fillColor=none;collapsible=0;dropTarget=0;points=[[0,0.5],[1,0.5]];portConstraint=eastwest;top=0;left=0;right=0;bottom=1;" parent="B9bkMVFS8lbxB0pxSiQX-112" vertex="1">
          <mxGeometry y="120" width="180" height="30" as="geometry" />
        </mxCell>
        <mxCell id="B9bkMVFS8lbxB0pxSiQX-132" value="FK - INT" style="shape=partialRectangle;connectable=0;fillColor=none;top=0;left=0;bottom=0;right=0;fontStyle=1;overflow=hidden;whiteSpace=wrap;html=1;" parent="B9bkMVFS8lbxB0pxSiQX-131" vertex="1">
          <mxGeometry width="120" height="30" as="geometry">
            <mxRectangle width="120" height="30" as="alternateBounds" />
          </mxGeometry>
        </mxCell>
        <mxCell id="B9bkMVFS8lbxB0pxSiQX-133" value="id_ponto" style="shape=partialRectangle;connectable=0;fillColor=none;top=0;left=0;bottom=0;right=0;align=left;spacingLeft=6;fontStyle=1;overflow=hidden;whiteSpace=wrap;html=1;" parent="B9bkMVFS8lbxB0pxSiQX-131" vertex="1">
          <mxGeometry x="120" width="60" height="30" as="geometry">
            <mxRectangle width="60" height="30" as="alternateBounds" />
          </mxGeometry>
        </mxCell>
        <mxCell id="B9bkMVFS8lbxB0pxSiQX-168" style="edgeStyle=orthogonalEdgeStyle;rounded=0;orthogonalLoop=1;jettySize=auto;html=1;entryX=0.5;entryY=1;entryDx=0;entryDy=0;startArrow=ERmandOne;startFill=0;endArrow=ERmandOne;endFill=0;" parent="WIyWlLk6GJQsqaUBKTNV-1" source="B9bkMVFS8lbxB0pxSiQX-137" target="B9bkMVFS8lbxB0pxSiQX-86" edge="1">
          <mxGeometry relative="1" as="geometry" />
        </mxCell>
        <mxCell id="B9bkMVFS8lbxB0pxSiQX-137" value="caminhao" style="shape=table;startSize=30;container=1;collapsible=1;childLayout=tableLayout;fixedRows=1;rowLines=0;fontStyle=1;align=center;resizeLast=1;html=1;" parent="WIyWlLk6GJQsqaUBKTNV-1" vertex="1">
          <mxGeometry x="430" y="297.5" width="255" height="185" as="geometry">
            <mxRectangle x="310" y="280" width="100" height="30" as="alternateBounds" />
          </mxGeometry>
        </mxCell>
        <mxCell id="B9bkMVFS8lbxB0pxSiQX-138" value="" style="shape=tableRow;horizontal=0;startSize=0;swimlaneHead=0;swimlaneBody=0;fillColor=none;collapsible=0;dropTarget=0;points=[[0,0.5],[1,0.5]];portConstraint=eastwest;top=0;left=0;right=0;bottom=1;" parent="B9bkMVFS8lbxB0pxSiQX-137" vertex="1">
          <mxGeometry y="30" width="255" height="31" as="geometry" />
        </mxCell>
        <mxCell id="B9bkMVFS8lbxB0pxSiQX-139" value="PK - SERIAL - INT" style="shape=partialRectangle;connectable=0;fillColor=none;top=0;left=0;bottom=0;right=0;fontStyle=1;overflow=hidden;whiteSpace=wrap;html=1;" parent="B9bkMVFS8lbxB0pxSiQX-138" vertex="1">
          <mxGeometry width="135" height="31" as="geometry">
            <mxRectangle width="135" height="31" as="alternateBounds" />
          </mxGeometry>
        </mxCell>
        <mxCell id="B9bkMVFS8lbxB0pxSiQX-140" value="id_caminhao" style="shape=partialRectangle;connectable=0;fillColor=none;top=0;left=0;bottom=0;right=0;align=left;spacingLeft=6;fontStyle=5;overflow=hidden;whiteSpace=wrap;html=1;" parent="B9bkMVFS8lbxB0pxSiQX-138" vertex="1">
          <mxGeometry x="135" width="120" height="31" as="geometry">
            <mxRectangle width="120" height="31" as="alternateBounds" />
          </mxGeometry>
        </mxCell>
        <mxCell id="B9bkMVFS8lbxB0pxSiQX-150" value="" style="shape=tableRow;horizontal=0;startSize=0;swimlaneHead=0;swimlaneBody=0;fillColor=none;collapsible=0;dropTarget=0;points=[[0,0.5],[1,0.5]];portConstraint=eastwest;top=0;left=0;right=0;bottom=1;" parent="B9bkMVFS8lbxB0pxSiQX-137" vertex="1">
          <mxGeometry y="61" width="255" height="31" as="geometry" />
        </mxCell>
        <mxCell id="B9bkMVFS8lbxB0pxSiQX-151" value="FK - INT" style="shape=partialRectangle;connectable=0;fillColor=none;top=0;left=0;bottom=0;right=0;fontStyle=1;overflow=hidden;whiteSpace=wrap;html=1;" parent="B9bkMVFS8lbxB0pxSiQX-150" vertex="1">
          <mxGeometry width="135" height="31" as="geometry">
            <mxRectangle width="135" height="31" as="alternateBounds" />
          </mxGeometry>
        </mxCell>
        <mxCell id="B9bkMVFS8lbxB0pxSiQX-152" value="&lt;span style=&quot;&quot;&gt;&lt;b&gt;id_rota&lt;/b&gt;&lt;/span&gt;" style="shape=partialRectangle;connectable=0;fillColor=none;top=0;left=0;bottom=0;right=0;align=left;spacingLeft=6;fontStyle=0;overflow=hidden;whiteSpace=wrap;html=1;" parent="B9bkMVFS8lbxB0pxSiQX-150" vertex="1">
          <mxGeometry x="135" width="120" height="31" as="geometry">
            <mxRectangle width="120" height="31" as="alternateBounds" />
          </mxGeometry>
        </mxCell>
        <mxCell id="B9bkMVFS8lbxB0pxSiQX-153" value="" style="shape=tableRow;horizontal=0;startSize=0;swimlaneHead=0;swimlaneBody=0;fillColor=none;collapsible=0;dropTarget=0;points=[[0,0.5],[1,0.5]];portConstraint=eastwest;top=0;left=0;right=0;bottom=1;" parent="B9bkMVFS8lbxB0pxSiQX-137" vertex="1">
          <mxGeometry y="92" width="255" height="31" as="geometry" />
        </mxCell>
        <mxCell id="B9bkMVFS8lbxB0pxSiQX-154" value="VARCHAR(20)" style="shape=partialRectangle;connectable=0;fillColor=none;top=0;left=0;bottom=0;right=0;fontStyle=1;overflow=hidden;whiteSpace=wrap;html=1;" parent="B9bkMVFS8lbxB0pxSiQX-153" vertex="1">
          <mxGeometry width="135" height="31" as="geometry">
            <mxRectangle width="135" height="31" as="alternateBounds" />
          </mxGeometry>
        </mxCell>
        <mxCell id="B9bkMVFS8lbxB0pxSiQX-155" value="modelo" style="shape=partialRectangle;connectable=0;fillColor=none;top=0;left=0;bottom=0;right=0;align=left;spacingLeft=6;fontStyle=0;overflow=hidden;whiteSpace=wrap;html=1;" parent="B9bkMVFS8lbxB0pxSiQX-153" vertex="1">
          <mxGeometry x="135" width="120" height="31" as="geometry">
            <mxRectangle width="120" height="31" as="alternateBounds" />
          </mxGeometry>
        </mxCell>
        <mxCell id="B9bkMVFS8lbxB0pxSiQX-156" value="" style="shape=tableRow;horizontal=0;startSize=0;swimlaneHead=0;swimlaneBody=0;fillColor=none;collapsible=0;dropTarget=0;points=[[0,0.5],[1,0.5]];portConstraint=eastwest;top=0;left=0;right=0;bottom=1;" parent="B9bkMVFS8lbxB0pxSiQX-137" vertex="1">
          <mxGeometry y="123" width="255" height="31" as="geometry" />
        </mxCell>
        <mxCell id="B9bkMVFS8lbxB0pxSiQX-157" value="INT" style="shape=partialRectangle;connectable=0;fillColor=none;top=0;left=0;bottom=0;right=0;fontStyle=1;overflow=hidden;whiteSpace=wrap;html=1;" parent="B9bkMVFS8lbxB0pxSiQX-156" vertex="1">
          <mxGeometry width="135" height="31" as="geometry">
            <mxRectangle width="135" height="31" as="alternateBounds" />
          </mxGeometry>
        </mxCell>
        <mxCell id="B9bkMVFS8lbxB0pxSiQX-158" value="capacidade" style="shape=partialRectangle;connectable=0;fillColor=none;top=0;left=0;bottom=0;right=0;align=left;spacingLeft=6;fontStyle=0;overflow=hidden;whiteSpace=wrap;html=1;" parent="B9bkMVFS8lbxB0pxSiQX-156" vertex="1">
          <mxGeometry x="135" width="120" height="31" as="geometry">
            <mxRectangle width="120" height="31" as="alternateBounds" />
          </mxGeometry>
        </mxCell>
        <mxCell id="B9bkMVFS8lbxB0pxSiQX-159" value="" style="shape=tableRow;horizontal=0;startSize=0;swimlaneHead=0;swimlaneBody=0;fillColor=none;collapsible=0;dropTarget=0;points=[[0,0.5],[1,0.5]];portConstraint=eastwest;top=0;left=0;right=0;bottom=1;" parent="B9bkMVFS8lbxB0pxSiQX-137" vertex="1">
          <mxGeometry y="154" width="255" height="31" as="geometry" />
        </mxCell>
        <mxCell id="B9bkMVFS8lbxB0pxSiQX-160" value="DATE" style="shape=partialRectangle;connectable=0;fillColor=none;top=0;left=0;bottom=0;right=0;fontStyle=1;overflow=hidden;whiteSpace=wrap;html=1;" parent="B9bkMVFS8lbxB0pxSiQX-159" vertex="1">
          <mxGeometry width="135" height="31" as="geometry">
            <mxRectangle width="135" height="31" as="alternateBounds" />
          </mxGeometry>
        </mxCell>
        <mxCell id="B9bkMVFS8lbxB0pxSiQX-161" value="ano_de_fabricação" style="shape=partialRectangle;connectable=0;fillColor=none;top=0;left=0;bottom=0;right=0;align=left;spacingLeft=6;fontStyle=0;overflow=hidden;whiteSpace=wrap;html=1;" parent="B9bkMVFS8lbxB0pxSiQX-159" vertex="1">
          <mxGeometry x="135" width="120" height="31" as="geometry">
            <mxRectangle width="120" height="31" as="alternateBounds" />
          </mxGeometry>
        </mxCell>
        <mxCell id="NleWMUWUHoIItOQJwJyF-3" style="edgeStyle=orthogonalEdgeStyle;rounded=0;orthogonalLoop=1;jettySize=auto;html=1;exitX=1;exitY=0.5;exitDx=0;exitDy=0;entryX=0.499;entryY=1.159;entryDx=0;entryDy=0;entryPerimeter=0;startArrow=ERmandOne;startFill=0;endArrow=ERmandOne;endFill=0;" parent="WIyWlLk6GJQsqaUBKTNV-1" source="B9bkMVFS8lbxB0pxSiQX-34" target="B9bkMVFS8lbxB0pxSiQX-159" edge="1">
          <mxGeometry relative="1" as="geometry">
            <Array as="points">
              <mxPoint x="557" y="711" />
            </Array>
          </mxGeometry>
        </mxCell>
        <mxCell id="NleWMUWUHoIItOQJwJyF-4" style="edgeStyle=orthogonalEdgeStyle;rounded=0;orthogonalLoop=1;jettySize=auto;html=1;exitX=0.5;exitY=0;exitDx=0;exitDy=0;entryX=0.591;entryY=-0.034;entryDx=0;entryDy=0;entryPerimeter=0;" parent="WIyWlLk6GJQsqaUBKTNV-1" source="B9bkMVFS8lbxB0pxSiQX-37" target="B9bkMVFS8lbxB0pxSiQX-37" edge="1">
          <mxGeometry relative="1" as="geometry" />
        </mxCell>
      </root>
    </mxGraphModel>
  </diagram>
</mxfile>
